<?xml version="1.0" encoding="UTF-8" standalone="no"?>
<!-- Created with Inkscape (http://www.inkscape.org/) -->

<svg
   xmlns:dc="http://purl.org/dc/elements/1.1/"
   xmlns:cc="http://creativecommons.org/ns#"
   xmlns:rdf="http://www.w3.org/1999/02/22-rdf-syntax-ns#"
   xmlns:svg="http://www.w3.org/2000/svg"
   xmlns="http://www.w3.org/2000/svg"
   xmlns:xlink="http://www.w3.org/1999/xlink"
   xmlns:sodipodi="http://sodipodi.sourceforge.net/DTD/sodipodi-0.dtd"
   xmlns:inkscape="http://www.inkscape.org/namespaces/inkscape"
   width="276.00031mm"
   height="273.26309mm"
   viewBox="0 0 276.00031 273.26309"
   version="1.1"
   id="svg8"
   inkscape:version="0.92.4 (5da689c313, 2019-01-14)"
   sodipodi:docname="fig_S14_pangenomes.svg">
  <defs
     id="defs2">
    <clipPath
       clipPathUnits="userSpaceOnUse"
       id="clipPath8364">
      <path
         d="M 44.902,5.48 H 661.851 V 378.101 H 44.902 Z"
         id="path8362"
         inkscape:connector-curvature="0" />
    </clipPath>
    <clipPath
       clipPathUnits="userSpaceOnUse"
       id="clipPath23377">
      <rect
         style="opacity:0.7770004;fill:#00000f;fill-opacity:0.01568627;fill-rule:nonzero;stroke:#000000;stroke-width:1;stroke-linecap:round;stroke-linejoin:round;stroke-miterlimit:4;stroke-dasharray:none;stroke-dashoffset:0;stroke-opacity:1;paint-order:stroke markers fill"
         id="rect23379"
         width="120.53855"
         height="121.60764"
         x="253.94876"
         y="-133.1879" />
    </clipPath>
    <clipPath
       clipPathUnits="userSpaceOnUse"
       id="clipPath23383">
      <rect
         style="opacity:0.7770004;fill:#00000f;fill-opacity:0.01568627;fill-rule:nonzero;stroke:#000000;stroke-width:1;stroke-linecap:round;stroke-linejoin:round;stroke-miterlimit:4;stroke-dasharray:none;stroke-dashoffset:0;stroke-opacity:1;paint-order:stroke markers fill"
         id="rect23385"
         width="117.86591"
         height="113.28777"
         x="256.62137"
         y="-133.1879" />
    </clipPath>
    <clipPath
       clipPathUnits="userSpaceOnUse"
       id="clipPath23395">
      <rect
         style="opacity:0.7770004;fill:#00000f;fill-opacity:0.01568627;fill-rule:nonzero;stroke:#000000;stroke-width:1;stroke-linecap:round;stroke-linejoin:round;stroke-miterlimit:4;stroke-dasharray:none;stroke-dashoffset:0;stroke-opacity:1;paint-order:stroke markers fill"
         id="rect23397"
         width="79.375"
         height="285.75"
         x="-150.40103"
         y="-202.24121" />
    </clipPath>
    <clipPath
       clipPathUnits="userSpaceOnUse"
       id="clipPath23969">
      <rect
         style="opacity:0.7770004;fill:#00000f;fill-opacity:0.01568627;fill-rule:nonzero;stroke:#000000;stroke-width:1;stroke-linecap:round;stroke-linejoin:round;stroke-miterlimit:4;stroke-dasharray:none;stroke-dashoffset:0;stroke-opacity:1;paint-order:stroke markers fill"
         id="rect23971"
         width="204.10715"
         height="216.95833"
         x="305.81625"
         y="-104.72335" />
    </clipPath>
    <clipPath
       clipPathUnits="userSpaceOnUse"
       id="clipPath23981">
      <rect
         style="opacity:0.7770004;fill:#00000f;fill-opacity:0.01568627;fill-rule:nonzero;stroke:#000000;stroke-width:1;stroke-linecap:round;stroke-linejoin:round;stroke-miterlimit:4;stroke-dasharray:none;stroke-dashoffset:0;stroke-opacity:1;paint-order:stroke markers fill"
         id="rect23983"
         width="168.57739"
         height="185.20833"
         x="217.74777"
         y="162.88379" />
    </clipPath>
    <clipPath
       clipPathUnits="userSpaceOnUse"
       id="clipPath23987">
      <rect
         style="opacity:0.7770004;fill:#00000f;fill-opacity:0.01568627;fill-rule:nonzero;stroke:#000000;stroke-width:1;stroke-linecap:round;stroke-linejoin:round;stroke-miterlimit:4;stroke-dasharray:none;stroke-dashoffset:0;stroke-opacity:1;paint-order:stroke markers fill"
         id="rect23989"
         width="80.130959"
         height="179.53868"
         x="217.74777"
         y="162.88379" />
    </clipPath>
    <clipPath
       clipPathUnits="userSpaceOnUse"
       id="clipPath23969-4">
      <rect
         style="opacity:0.7770004;fill:#00000f;fill-opacity:0.01568627;fill-rule:nonzero;stroke:#000000;stroke-width:1;stroke-linecap:round;stroke-linejoin:round;stroke-miterlimit:4;stroke-dasharray:none;stroke-dashoffset:0;stroke-opacity:1;paint-order:stroke markers fill"
         id="rect23971-7"
         width="204.10715"
         height="216.95833"
         x="305.81625"
         y="-104.72335" />
    </clipPath>
    <clipPath
       clipPathUnits="userSpaceOnUse"
       id="clipPath24014">
      <rect
         style="opacity:0.7770004;fill:#00000f;fill-opacity:0.01568627;fill-rule:nonzero;stroke:#000000;stroke-width:2.1660378;stroke-linecap:round;stroke-linejoin:round;stroke-miterlimit:4;stroke-dasharray:none;stroke-dashoffset:0;stroke-opacity:1;paint-order:stroke markers fill"
         id="rect24016"
         width="33.567139"
         height="13.508727"
         x="390.01227"
         y="100.32838" />
    </clipPath>
    <clipPath
       clipPathUnits="userSpaceOnUse"
       id="clipPath24649">
      <rect
         style="opacity:0.7770004;fill:#00000f;fill-opacity:0.01568627;fill-rule:nonzero;stroke:#000000;stroke-width:1;stroke-linecap:round;stroke-linejoin:round;stroke-miterlimit:4;stroke-dasharray:none;stroke-dashoffset:0;stroke-opacity:1;paint-order:stroke markers fill"
         id="rect24651"
         width="171.97917"
         height="183.69643"
         x="337.56625"
         y="-50.294785" />
    </clipPath>
    <clipPath
       clipPathUnits="userSpaceOnUse"
       id="clipPath24670">
      <rect
         style="opacity:0.7770004;fill:#00000f;fill-opacity:0.01568627;fill-rule:nonzero;stroke:#000000;stroke-width:1;stroke-linecap:round;stroke-linejoin:round;stroke-miterlimit:4;stroke-dasharray:none;stroke-dashoffset:0;stroke-opacity:1;paint-order:stroke markers fill"
         id="rect24672"
         width="69.925591"
         height="133.80357"
         x="263.10492"
         y="131.51178" />
    </clipPath>
  </defs>
  <sodipodi:namedview
     id="base"
     pagecolor="#ffffff"
     bordercolor="#666666"
     borderopacity="1.0"
     inkscape:pageopacity="0.0"
     inkscape:pageshadow="2"
     inkscape:zoom="0.49497475"
     inkscape:cx="-239.40072"
     inkscape:cy="415.28386"
     inkscape:document-units="mm"
     inkscape:current-layer="layer1"
     showgrid="false"
     inkscape:window-width="1920"
     inkscape:window-height="1001"
     inkscape:window-x="-9"
     inkscape:window-y="-9"
     inkscape:window-maximized="1"
     fit-margin-top="0"
     fit-margin-left="0"
     fit-margin-right="0"
     fit-margin-bottom="0"
     showguides="true"
     inkscape:guide-bbox="true">
    <sodipodi:guide
       position="125.97302,198.10355"
       orientation="0,1"
       id="guide24674"
       inkscape:locked="false" />
    <sodipodi:guide
       position="16.009932,112.04983"
       orientation="1,0"
       id="guide24685"
       inkscape:locked="false" />
    <sodipodi:guide
       position="265.8522,114.69567"
       orientation="1,0"
       id="guide24687"
       inkscape:locked="false" />
    <sodipodi:guide
       position="84.679881,202.04578"
       orientation="0,1"
       id="guide24689"
       inkscape:locked="false" />
    <sodipodi:guide
       position="133.18255,266.64209"
       orientation="0,1"
       id="guide24691"
       inkscape:locked="false" />
    <sodipodi:guide
       position="27.617837,224.02869"
       orientation="1,0"
       id="guide24693"
       inkscape:locked="false" />
    <sodipodi:guide
       position="116.99423,230.4512"
       orientation="1,0"
       id="guide24695"
       inkscape:locked="false" />
    <sodipodi:guide
       position="200.54122,238.72851"
       orientation="1,0"
       id="guide24697"
       inkscape:locked="false" />
  </sodipodi:namedview>
  <metadata
     id="metadata5">
    <rdf:RDF>
      <cc:Work
         rdf:about="">
        <dc:format>image/svg+xml</dc:format>
        <dc:type
           rdf:resource="http://purl.org/dc/dcmitype/StillImage" />
        <dc:title></dc:title>
      </cc:Work>
    </rdf:RDF>
  </metadata>
  <g
     inkscape:label="Layer 1"
     inkscape:groupmode="layer"
     id="layer1"
     transform="translate(31.85144,120.41577)">
    <text
       id="text2969"
       style="font-variant:normal;font-weight:normal;font-size:9.5518589px;font-family:Arial;-inkscape-font-specification:ArialMT;writing-mode:lr-tb;fill:#000000;fill-opacity:1;fill-rule:nonzero;stroke:none;stroke-width:0.14111111"
       x="-9.8358727"
       y="-109.15649">
      <tspan
         style="stroke-width:0.14111111"
         id="tspan2965"
         y="-109.15649"
         x="-9.8358727">a</tspan>
      <tspan
         style="stroke-width:0.14111111"
         id="tspan2967"
         y="-65.777588"
         x="-11.108709" />
    </text>
    <path
       d="m 27.471274,-81.991233 v -31.803547 l -1.104365,0.0186 -1.102709,0.0573 -1.10043,0.0963 -1.096908,0.1336 -1.090696,0.17233 -1.084898,0.20939 -1.076196,0.24773 -1.067084,0.28395 -1.057347,0.32208 -1.044507,0.35749 -1.032495,0.39393 -1.017788,0.42978 -1.001635,0.46436 0.478242,0.98694 0.478861,0.98713 0.478241,0.9863 0.478863,0.98693 0.478239,0.9863 0.478863,0.98715 0.478241,0.98692 0.478239,0.98631 0.478863,0.98713 0.478238,0.98694 0.478863,0.986315 0.478241,0.987145 0.478862,0.98692 0.478241,0.986314 0.478863,0.98713 0.478239,0.98693 0.47907,0.9863 0.478035,0.98715 0.479069,0.98692 0.478033,0.98631 0.479068,0.98713 0.478034,0.98693 0.478242,0.98631 0.478862,0.98713 0.47824,0.98694 0.478862,0.986304 0.478242,0.987133 0.479069,0.98693 z"
       style="fill:#e64b35;fill-opacity:0.74901997;fill-rule:nonzero;stroke:none;stroke-width:0.20712021"
       id="path20620"
       inkscape:connector-curvature="0" />
    <path
       d="m 27.471274,-81.991233 v -31.803547 l -1.104365,0.0186 -1.102709,0.0573 -1.10043,0.0963 -1.096908,0.1336 -1.090696,0.17233 -1.084898,0.20939 -1.076196,0.24773 -1.067084,0.28395 -1.057347,0.32208 -1.044507,0.35749 -1.032495,0.39393 -1.017788,0.42978 -1.001635,0.46436 0.478242,0.98694 0.478861,0.98713 0.478241,0.9863 0.478863,0.98693 0.478239,0.9863 0.478863,0.98715 0.478241,0.98692 0.478239,0.98631 0.478863,0.98713 0.478238,0.98694 0.478863,0.986315 0.478241,0.987145 0.478862,0.98692 0.478241,0.986314 0.478863,0.98713 0.478239,0.98693 0.47907,0.9863 0.478035,0.98715 0.479069,0.98692 0.478033,0.98631 0.479068,0.98713 0.478034,0.98693 0.478242,0.98631 0.478862,0.98713 0.47824,0.98694 0.478862,0.986304 0.478242,0.987133 0.479069,0.98693 z"
       style="fill:none;stroke:#000000;stroke-width:0.22099271;stroke-linecap:round;stroke-linejoin:round;stroke-miterlimit:10;stroke-dasharray:none;stroke-opacity:1"
       id="path20622"
       inkscape:connector-curvature="0" />
    <path
       d="m 27.471274,-81.991233 -0.478033,-0.986305 -0.479069,-0.98693 -0.478242,-0.987134 -0.478862,-0.986304 -0.47824,-0.98694 -0.478862,-0.98713 -0.478242,-0.98631 -0.478034,-0.98692 -0.479068,-0.98714 -0.478033,-0.98631 -0.479069,-0.98692 -0.478035,-0.98715 -0.47907,-0.9863 -0.478239,-0.98693 -0.478863,-0.98713 -0.478241,-0.986314 -0.478862,-0.98693 -0.478241,-0.987145 -0.478863,-0.986305 -0.478238,-0.98694 -0.478863,-0.98713 -0.478239,-0.98631 -0.478241,-0.98692 -0.478863,-0.98715 -0.478239,-0.9863 -0.478863,-0.98693 -0.478241,-0.98629 -0.478861,-0.98714 -0.478242,-0.98693 -1.075161,0.5468 -1.053413,0.58739 -1.030837,0.62633 -1.0063986,0.66589 1.2443796,1.80567 0.62219,0.90388 1.866359,2.70871 0.62219,0.90367 1.866569,2.708735 0.622188,0.903875 1.866566,2.708724 0.621983,0.90367 1.866567,2.70871 0.62219,0.90367 1.866568,2.70872 0.622188,0.90388 1.244379,1.80588 0.621983,0.903665 z"
       style="fill:#4dbbd5;fill-opacity:0.74901997;fill-rule:nonzero;stroke:none;stroke-width:0.20712021"
       id="path20624"
       inkscape:connector-curvature="0" />
    <path
       d="m 27.471274,-81.991233 -0.478033,-0.986305 -0.479069,-0.98693 -0.478242,-0.987134 -0.478862,-0.986304 -0.47824,-0.98694 -0.478862,-0.98713 -0.478242,-0.98631 -0.478034,-0.98692 -0.479068,-0.98714 -0.478033,-0.98631 -0.479069,-0.98692 -0.478035,-0.98715 -0.47907,-0.9863 -0.478239,-0.98693 -0.478863,-0.98713 -0.478241,-0.986314 -0.478862,-0.98693 -0.478241,-0.987145 -0.478863,-0.986305 -0.478238,-0.98694 -0.478863,-0.98713 -0.478239,-0.98631 -0.478241,-0.98692 -0.478863,-0.98715 -0.478239,-0.9863 -0.478863,-0.98693 -0.478241,-0.98629 -0.478861,-0.98714 -0.478242,-0.98693 -1.075161,0.5468 -1.053413,0.58739 -1.030837,0.62633 -1.0063986,0.66589 1.2443796,1.80567 0.62219,0.90388 1.866359,2.70871 0.62219,0.90367 1.866569,2.708735 0.622188,0.903875 1.866566,2.708724 0.621983,0.90367 1.866567,2.70871 0.62219,0.90367 1.866568,2.70872 0.622188,0.90388 1.244379,1.80588 0.621983,0.903665 z"
       style="fill:none;stroke:#000000;stroke-width:0.22099271;stroke-linecap:round;stroke-linejoin:round;stroke-miterlimit:10;stroke-dasharray:none;stroke-opacity:1"
       id="path20626"
       inkscape:connector-curvature="0" />
    <path
       d="m 27.471274,-81.991233 -1.866568,-2.708718 -0.621983,-0.903665 -1.244379,-1.80588 -0.622188,-0.90388 -1.866568,-2.70872 -0.62219,-0.90367 -1.866567,-2.70871 -0.621983,-0.90367 -1.866566,-2.708724 -0.622188,-0.903875 -1.866569,-2.708735 -0.62219,-0.90367 -1.866359,-2.70871 -0.62219,-0.90388 -1.2443796,-1.80567 -0.9013867,0.64393 -0.877775,0.67563 -0.854371,0.70545 -0.829309,0.73467 -0.802591,0.76302 -0.7758734,0.7912 -0.748325,0.81709 -0.7185,0.84235 -0.689295,0.86722 -0.658643,0.89082 -0.62695307,0.913415 -0.59547,0.934535 -0.56233103,0.95462 -0.528362,0.974084 0.97325603,0.5058 0.97263697,0.5064 0.9732571,0.5064 1.945066,1.01304 0.973257,0.50558 0.9724304,0.50661 0.973258,0.50641 0.972636,0.50641 0.9724287,0.50578 0.973258,0.50642 0.9724306,0.5064 0.973465,0.50663 0.972429,0.5064 0.97243,0.50558 0.973466,0.50662 0.97243,0.50641 0.973258,0.50641 0.972427,0.50579 0.973465,0.5064 1.944859,1.01303 0.97326,0.506413 0.972636,0.50558 0.973258,0.506616 1.945068,1.012817 0.973257,0.506616 z"
       style="fill:#00a087;fill-opacity:0.74901997;fill-rule:nonzero;stroke:none;stroke-width:0.20712021"
       id="path20628"
       inkscape:connector-curvature="0" />
    <path
       d="m 27.471274,-81.991233 -1.866568,-2.708718 -0.621983,-0.903665 -1.244379,-1.80588 -0.622188,-0.90388 -1.866568,-2.70872 -0.62219,-0.90367 -1.866567,-2.70871 -0.621983,-0.90367 -1.866566,-2.708724 -0.622188,-0.903875 -1.866569,-2.708735 -0.62219,-0.90367 -1.866359,-2.70871 -0.62219,-0.90388 -1.2443796,-1.80567 -0.9013867,0.64393 -0.877775,0.67563 -0.854371,0.70545 -0.829309,0.73467 -0.802591,0.76302 -0.7758734,0.7912 -0.748325,0.81709 -0.7185,0.84235 -0.689295,0.86722 -0.658643,0.89082 -0.62695307,0.913415 -0.59547,0.934535 -0.56233103,0.95462 -0.528362,0.974084 0.97325603,0.5058 0.97263697,0.5064 0.9732571,0.5064 1.945066,1.01304 0.973257,0.50558 0.9724304,0.50661 0.973258,0.50641 0.972636,0.50641 0.9724287,0.50578 0.973258,0.50642 0.9724306,0.5064 0.973465,0.50663 0.972429,0.5064 0.97243,0.50558 0.973466,0.50662 0.97243,0.50641 0.973258,0.50641 0.972427,0.50579 0.973465,0.5064 1.944859,1.01303 0.97326,0.506413 0.972636,0.50558 0.973258,0.506616 1.945068,1.012817 0.973257,0.506616 z"
       style="fill:none;stroke:#000000;stroke-width:0.22099271;stroke-linecap:round;stroke-linejoin:round;stroke-miterlimit:10;stroke-dasharray:none;stroke-opacity:1"
       id="path20630"
       inkscape:connector-curvature="0" />
    <path
       d="m 27.471274,-81.991233 -0.97243,-0.505581 -0.973257,-0.506616 -1.945068,-1.012817 -0.973258,-0.506616 -0.972636,-0.50558 -0.97326,-0.506413 -1.944859,-1.01303 -0.973465,-0.5064 -0.972427,-0.50579 -0.973258,-0.50641 -0.97243,-0.50641 -0.973466,-0.50662 -0.97243,-0.50558 -0.972429,-0.5064 -0.973465,-0.50663 -0.9724306,-0.5064 -0.973258,-0.50642 -0.9724287,-0.50578 -0.972636,-0.50641 -0.973258,-0.50641 -0.9724304,-0.50661 -0.973257,-0.50558 -1.945066,-1.01304 -0.9732571,-0.5064 -0.97263697,-0.5064 -0.97325603,-0.5058 -0.481348,0.96519 -0.449037,0.98153 -0.415897,0.99584 -0.381101,1.00971 -0.346927,1.02276 -0.311509,1.03311 -0.276713,1.04286 -0.241087,1.05175 -0.205464,1.05985 -0.169217,1.06563 -0.132764,1.07123 -0.09693,1.075156 -0.05985,1.077649 -0.02361,1.078473 0.01304,1.079304 0.05012,1.078475 0.08657,1.075368 0.122202,1.072883 0.159274,1.067082 0.195108,1.061492 0.231354,1.054242 0.266977,1.045957 0.301775,1.035601 0.337399,1.025245 0.371366,1.013648 0.406162,0.999975 0.439303,0.985478 0.472442,0.970151 0.505786,0.953788 0.53706303,0.936184 0.568751,0.916715 0.59961347,0.897865 0.6302656,0.876328 0.659472,0.85437 0.687638,0.831794 0.715187,0.808184 0.742733,0.783121 0.7686234,0.757231 0.793685,0.731549 0.818746,0.702967 0.841529,0.675625 0.863898,0.646422 0.8860607,0.617218 0.9061526,0.585943 0.92562,0.555704 0.943225,0.5236 0.961244,0.491083 0.977402,0.458564 0.991899,0.424802 1.00557,0.391666 1.018615,0.356868 1.030008,0.321864 1.040366,0.286448 1.050307,0.251651 1.05735,0.215197 1.063976,0.179573 1.069567,0.143329 1.073506,0.107498 1.077647,0.07043 1.078682,0.03397 1.079096,-0.0025 1.078476,-0.03956 1.077025,-0.076 1.072675,-0.112467 1.069572,-0.14809 1.063143,-0.185374 1.055904,-0.220789 1.048443,-0.256416 1.038913,-0.292247 1.029179,-0.326835 1.016132,-0.362459 1.004121,-0.3956 0.990242,-0.429567 0.974912,-0.463535 0.957933,-0.496054 0.941775,-0.528363 0.922307,-0.559847 0.902837,-0.591328 0.882747,-0.620532 0.86079,-0.651394 0.838214,-0.67956 0.81564,-0.707936 0.789543,-0.734658 0.765307,-0.761373 0.738799,-0.787263 0.711046,-0.811291 0.683704,-0.835108 0.655329,-0.857479 0.625504,-0.879431 0.595467,-0.900559 0.563992,-0.919822 0.533128,-0.938667 0.499985,-0.956274 0.46851,-0.972429 0.434328,-0.987964 0.400569,-1.002464 0.366399,-1.014473 0.332635,-1.026697 0.296803,-1.038085 0.261383,-1.046993 0.225762,-1.055691 0.190136,-1.06232 0.153683,-1.067912 0.117229,-1.072882 0.08099,-1.075991 0.04457,-1.078474 0.0082,-1.079303 -0.02918,-1.078476 -0.06462,-1.077646 -0.101898,-1.074542 -0.138358,-1.0704 -0.174808,-1.06481 -0.210439,-1.05901 -0.246682,-1.0501 -0.281473,-1.04202 -0.317305,-1.03167 -0.351903,-1.02028 -0.38669,-1.00805 -0.419832,-0.99355 -0.454009,-0.97968 -0.486111,-0.96291 -0.51946,-0.946524 -0.550935,-0.92791 -0.582632,-0.908655 -0.612452,-0.889175 -0.642489,-0.86658 -0.671481,-0.84547 -0.699861,-0.82123 -0.72637,-0.79763 -0.754127,-0.77276 -0.780016,-0.74584 -0.804244,-0.71933 -0.82848,-0.69178 -0.851061,-0.6634 -0.87384,-0.63421 -0.894759,-0.60355 -0.914228,-0.57372 -0.932869,-0.5412 -0.95151,-0.51055 -0.968289,-0.47742 -0.983196,-0.44406 -0.998321,-0.4103 -1.011371,-0.37614 -1.023379,-0.34217 -1.034773,-0.30756 -1.044508,-0.27092 -1.053415,-0.23632 -1.060661,-0.2007 -1.066462,-0.16425 -1.071847,-0.12779 -1.075369,-0.0914 -1.077646,-0.0551 -1.079304,-0.0177 z"
       style="fill:#3c5488;fill-opacity:0.74901997;fill-rule:nonzero;stroke:none;stroke-width:0.20712021"
       id="path20632"
       inkscape:connector-curvature="0" />
    <path
       d="m 27.471274,-81.991233 -0.97243,-0.505581 -0.973257,-0.506616 -1.945068,-1.012817 -0.973258,-0.506616 -0.972636,-0.50558 -0.97326,-0.506413 -1.944859,-1.01303 -0.973465,-0.5064 -0.972427,-0.50579 -0.973258,-0.50641 -0.97243,-0.50641 -0.973466,-0.50662 -0.97243,-0.50558 -0.972429,-0.5064 -0.973465,-0.50663 -0.9724306,-0.5064 -0.973258,-0.50642 -0.9724287,-0.50578 -0.972636,-0.50641 -0.973258,-0.50641 -0.9724304,-0.50661 -0.973257,-0.50558 -1.945066,-1.01304 -0.9732571,-0.5064 -0.97263697,-0.5064 -0.97325603,-0.5058 -0.481348,0.96519 -0.449037,0.98153 -0.415897,0.99584 -0.381101,1.00971 -0.346927,1.02276 -0.311509,1.03311 -0.276713,1.04286 -0.241087,1.05175 -0.205464,1.05985 -0.169217,1.06563 -0.132764,1.07123 -0.09693,1.075156 -0.05985,1.077649 -0.02361,1.078473 0.01304,1.079304 0.05012,1.078475 0.08657,1.075368 0.122202,1.072883 0.159274,1.067082 0.195108,1.061492 0.231354,1.054242 0.266977,1.045957 0.301775,1.035601 0.337399,1.025245 0.371366,1.013648 0.406162,0.999975 0.439303,0.985478 0.472442,0.970151 0.505786,0.953788 0.53706303,0.936184 0.568751,0.916715 0.59961347,0.897865 0.6302656,0.876328 0.659472,0.85437 0.687638,0.831794 0.715187,0.808184 0.742733,0.783121 0.7686234,0.757231 0.793685,0.731549 0.818746,0.702967 0.841529,0.675625 0.863898,0.646422 0.8860607,0.617218 0.9061526,0.585943 0.92562,0.555704 0.943225,0.5236 0.961244,0.491083 0.977402,0.458564 0.991899,0.424802 1.00557,0.391666 1.018615,0.356868 1.030008,0.321864 1.040366,0.286448 1.050307,0.251651 1.05735,0.215197 1.063976,0.179573 1.069567,0.143329 1.073506,0.107498 1.077647,0.07043 1.078682,0.03397 1.079096,-0.0025 1.078476,-0.03956 1.077025,-0.076 1.072675,-0.112467 1.069572,-0.14809 1.063143,-0.185374 1.055904,-0.220789 1.048443,-0.256416 1.038913,-0.292247 1.029179,-0.326835 1.016132,-0.362459 1.004121,-0.3956 0.990242,-0.429567 0.974912,-0.463535 0.957933,-0.496054 0.941775,-0.528363 0.922307,-0.559847 0.902837,-0.591328 0.882747,-0.620532 0.86079,-0.651394 0.838214,-0.67956 0.81564,-0.707936 0.789543,-0.734658 0.765307,-0.761373 0.738799,-0.787263 0.711046,-0.811291 0.683704,-0.835108 0.655329,-0.857479 0.625504,-0.879431 0.595467,-0.900559 0.563992,-0.919822 0.533128,-0.938667 0.499985,-0.956274 0.46851,-0.972429 0.434328,-0.987964 0.400569,-1.002464 0.366399,-1.014473 0.332635,-1.026697 0.296803,-1.038085 0.261383,-1.046993 0.225762,-1.055691 0.190136,-1.06232 0.153683,-1.067912 0.117229,-1.072882 0.08099,-1.075991 0.04457,-1.078474 0.0082,-1.079303 -0.02918,-1.078476 -0.06462,-1.077646 -0.101898,-1.074542 -0.138358,-1.0704 -0.174808,-1.06481 -0.210439,-1.05901 -0.246682,-1.0501 -0.281473,-1.04202 -0.317305,-1.03167 -0.351903,-1.02028 -0.38669,-1.00805 -0.419832,-0.99355 -0.454009,-0.97968 -0.486111,-0.96291 -0.51946,-0.946524 -0.550935,-0.92791 -0.582632,-0.908655 -0.612452,-0.889175 -0.642489,-0.86658 -0.671481,-0.84547 -0.699861,-0.82123 -0.72637,-0.79763 -0.754127,-0.77276 -0.780016,-0.74584 -0.804244,-0.71933 -0.82848,-0.69178 -0.851061,-0.6634 -0.87384,-0.63421 -0.894759,-0.60355 -0.914228,-0.57372 -0.932869,-0.5412 -0.95151,-0.51055 -0.968289,-0.47742 -0.983196,-0.44406 -0.998321,-0.4103 -1.011371,-0.37614 -1.023379,-0.34217 -1.034773,-0.30756 -1.044508,-0.27092 -1.053415,-0.23632 -1.060661,-0.2007 -1.066462,-0.16425 -1.071847,-0.12779 -1.075369,-0.0914 -1.077646,-0.0551 -1.079304,-0.0177 z"
       style="fill:none;stroke:#000000;stroke-width:0.22099271;stroke-linecap:round;stroke-linejoin:round;stroke-miterlimit:10;stroke-dasharray:none;stroke-opacity:1"
       id="path20634"
       inkscape:connector-curvature="0" />
    <text
       style="font-variant:normal;font-weight:bold;font-size:9.41358566px;font-family:'Liberation Sans';-inkscape-font-specification:LiberationSans-Bold;writing-mode:lr-tb;fill:#000000;fill-opacity:1;fill-rule:nonzero;stroke:none;stroke-width:0.67239898"
       id="text20640"
       x="-15.841548"
       y="76.644234">
      <tspan
         style="stroke-width:0.67239898"
         x="-15.841548 -8.5272036 -3.2932563 2.4490538 7.6830468 10.29059 15.524537 18.132097 23.874424 29.108341 32.243076 37.477024 41.13892 43.746494 49.488743 53.150639 58.892948 64.635193"
         y="76.644234"
         sodipodi:role="line"
         id="tspan20638">Gene cluster group</tspan>
    </text>
    <path
       d="M -15.841508,82.476714 H -4.2217888 V 94.096439 H -15.841508 Z"
       style="fill:#ffffff;fill-opacity:1;fill-rule:nonzero;stroke:none;stroke-width:0.67239898"
       id="path20642"
       inkscape:connector-curvature="0" />
    <path
       d="M -15.366128,82.954784 H -4.6998692 V 93.621059 H -15.366128 Z"
       style="fill:#e64b35;fill-opacity:0.74901997;fill-rule:nonzero;stroke:none;stroke-width:0.67239898"
       id="path20644"
       inkscape:connector-curvature="0" />
    <path
       d="M -15.366128,82.954784 H -4.6998692 V 93.621059 H -15.366128 Z"
       style="fill:none;stroke:#000000;stroke-width:0.71743494;stroke-linecap:square;stroke-linejoin:miter;stroke-miterlimit:10;stroke-dasharray:none;stroke-opacity:1"
       id="path20646"
       inkscape:connector-curvature="0" />
    <path
       d="M -15.841508,94.096439 H -4.2217888 V 105.71617 H -15.841508 Z"
       style="fill:#ffffff;fill-opacity:1;fill-rule:nonzero;stroke:none;stroke-width:0.67239898"
       id="path20648"
       inkscape:connector-curvature="0" />
    <path
       d="M -15.366128,94.574517 H -4.6998692 V 105.24079 H -15.366128 Z"
       style="fill:#4dbbd5;fill-opacity:0.74901997;fill-rule:nonzero;stroke:none;stroke-width:0.67239898"
       id="path20650"
       inkscape:connector-curvature="0" />
    <path
       d="M -15.366128,94.574517 H -4.6998692 V 105.24079 H -15.366128 Z"
       style="fill:none;stroke:#000000;stroke-width:0.71743494;stroke-linecap:square;stroke-linejoin:miter;stroke-miterlimit:10;stroke-dasharray:none;stroke-opacity:1"
       id="path20652"
       inkscape:connector-curvature="0" />
    <path
       d="m -15.841508,105.71617 h 11.6197192 v 11.61974 H -15.841508 Z"
       style="fill:#ffffff;fill-opacity:1;fill-rule:nonzero;stroke:none;stroke-width:0.67239898"
       id="path20654"
       inkscape:connector-curvature="0" />
    <path
       d="m -15.366128,106.19156 h 10.6662588 v 10.66627 H -15.366128 Z"
       style="fill:#00a087;fill-opacity:0.74901997;fill-rule:nonzero;stroke:none;stroke-width:0.67239898"
       id="path20656"
       inkscape:connector-curvature="0" />
    <path
       d="m -15.366128,106.19156 h 10.6662588 v 10.66627 H -15.366128 Z"
       style="fill:none;stroke:#000000;stroke-width:0.71743494;stroke-linecap:square;stroke-linejoin:miter;stroke-miterlimit:10;stroke-dasharray:none;stroke-opacity:1"
       id="path20658"
       inkscape:connector-curvature="0" />
    <path
       d="m -15.841508,117.33389 h 11.6197192 v 11.61973 H -15.841508 Z"
       style="fill:#ffffff;fill-opacity:1;fill-rule:nonzero;stroke:none;stroke-width:0.67239898"
       id="path20660"
       inkscape:connector-curvature="0" />
    <path
       d="m -15.366128,117.81129 h 10.6662588 v 10.66627 H -15.366128 Z"
       style="fill:#3c5488;fill-opacity:0.74901997;fill-rule:nonzero;stroke:none;stroke-width:0.67239898"
       id="path20662"
       inkscape:connector-curvature="0" />
    <path
       d="m -15.366128,117.81129 h 10.6662588 v 10.66627 H -15.366128 Z"
       style="fill:none;stroke:#000000;stroke-width:0.71743494;stroke-linecap:square;stroke-linejoin:miter;stroke-miterlimit:10;stroke-dasharray:none;stroke-opacity:1"
       id="path20664"
       inkscape:connector-curvature="0" />
    <text
       style="font-variant:normal;font-weight:normal;font-size:8.06878853px;font-family:'Liberation Sans';-inkscape-font-specification:LiberationSans;writing-mode:lr-tb;fill:#000000;fill-opacity:1;fill-rule:nonzero;stroke:none;stroke-width:0.67239898"
       id="text20674"
       x="0.46678403"
       y="91.220345">
      <tspan
         style="stroke-width:0.67239898"
         x="0.46678403 6.2924366 10.778674 13.46561"
         y="91.220345"
         sodipodi:role="line"
         id="tspan20666">Core</tspan>
      <tspan
         style="stroke-width:0.67239898"
         x="0.46678403 5.8405933 10.32683 12.561893 14.796924 17.031984 21.066362 25.552631 28.239536"
         y="102.84023"
         sodipodi:role="line"
         id="tspan20668">Soft core</tspan>
      <tspan
         style="stroke-width:0.67239898"
         x="0.46678403 5.8405933 10.32683 14.813067 16.604372"
         y="114.46014"
         sodipodi:role="line"
         id="tspan20670">Shell</tspan>
      <tspan
         style="stroke-width:0.67239898"
         x="0.46678403 6.2924366 8.0837126 12.569949 17.056215"
         y="126.07738"
         sodipodi:role="line"
         id="tspan20672">Cloud</tspan>
    </text>
    <path
       d="m 117.17297,-81.52532 v -32.26903 l -1.1033,0.019 -1.10245,0.0568 -1.09994,0.0935 -1.09594,0.13219 -1.09111,0.16896 -1.08437,0.20701 -1.07703,0.24292 -1.06715,0.28076 -1.05812,0.31608 -1.04592,0.35305 -1.03352,0.38731 -1.01945,0.42366 -1.00389,0.4573 -0.98856,0.49238 -0.97111,0.52539 0.54682,0.96964 0.54597,0.96858 0.5466,0.96943 1.09174,1.93907 0.54682,0.96943 0.54597,0.96964 0.54661,0.96943 0.54597,0.96943 0.5466,0.969443 0.54598,0.96964 0.54681,0.96943 0.54576,0.96943 0.54598,0.96879 0.54681,0.969442 0.54577,0.96942 0.54681,0.96944 0.54576,0.96964 0.54682,0.96944 0.54598,0.96942 0.5466,0.96964 0.54597,0.96943 0.5466,0.969433 1.09196,1.939071 0.5466,0.969431 0.54597,0.968592 0.5466,0.96964 z"
       style="fill:#e64b35;fill-opacity:0.74901997;fill-rule:nonzero;stroke:none;stroke-width:0.21015172"
       id="path21395"
       inkscape:connector-curvature="0" />
    <path
       d="m 117.17297,-81.52532 v -32.26903 l -1.1033,0.019 -1.10245,0.0568 -1.09994,0.0935 -1.09594,0.13219 -1.09111,0.16896 -1.08437,0.20701 -1.07703,0.24292 -1.06715,0.28076 -1.05812,0.31608 -1.04592,0.35305 -1.03352,0.38731 -1.01945,0.42366 -1.00389,0.4573 -0.98856,0.49238 -0.97111,0.52539 0.54682,0.96964 0.54597,0.96858 0.5466,0.96943 1.09174,1.93907 0.54682,0.96943 0.54597,0.96964 0.54661,0.96943 0.54597,0.96943 0.5466,0.969443 0.54598,0.96964 0.54681,0.96943 0.54576,0.96943 0.54598,0.96879 0.54681,0.969442 0.54577,0.96942 0.54681,0.96944 0.54576,0.96964 0.54682,0.96944 0.54598,0.96942 0.5466,0.96964 0.54597,0.96943 0.5466,0.969433 1.09196,1.939071 0.5466,0.969431 0.54597,0.968592 0.5466,0.96964 z"
       style="fill:none;stroke:#000000;stroke-width:0.22422725;stroke-linecap:round;stroke-linejoin:round;stroke-miterlimit:10;stroke-dasharray:none;stroke-opacity:1"
       id="path21397"
       inkscape:connector-curvature="0" />
    <path
       d="m 117.17297,-81.52532 -0.54598,-0.969432 -0.5466,-0.96964 -0.54597,-0.968593 -0.5466,-0.96943 -1.09196,-1.93906 -0.5466,-0.96944 -0.54597,-0.96942 -0.5466,-0.96964 -0.54598,-0.96944 -0.54682,-0.96943 -0.54576,-0.96964 -0.54681,-0.96944 -0.54577,-0.96942 -0.54681,-0.969432 -0.54598,-0.9688 -0.54576,-0.96943 -0.54681,-0.96942 -0.54598,-0.96965 -0.5466,-0.969443 -0.54597,-0.96942 -0.54661,-0.96943 -0.54597,-0.96964 -0.54682,-0.96943 -1.09174,-1.93908 -0.5466,-0.96943 -0.54597,-0.96858 -0.54682,-0.96965 -1.02029,0.6002 -0.998216,0.63697 -0.973633,0.67311 -0.949044,0.70842 -0.921726,0.7431 -0.893986,0.77567 -0.864353,0.80866 -0.834933,0.83978 0.802779,0.76999 1.607451,1.53998 0.802779,0.77 0.80362,0.76916 0.803621,0.770013 0.80299,0.77 2.410861,2.30997 0.80299,0.770212 0.80362,0.76916 0.80362,0.76999 0.80278,0.77 1.60744,1.53999 0.80278,0.77 1.60746,1.53999 0.80277,0.76917 1.60724,1.539987 0.803,0.769988 1.60723,1.540209 0.80278,0.769989 0.80383,0.77 0.80362,0.769162 z"
       style="fill:#4dbbd5;fill-opacity:0.74901997;fill-rule:nonzero;stroke:none;stroke-width:0.21015172"
       id="path21399"
       inkscape:connector-curvature="0" />
    <path
       d="m 117.17297,-81.52532 -0.54598,-0.969432 -0.5466,-0.96964 -0.54597,-0.968593 -0.5466,-0.96943 -1.09196,-1.93906 -0.5466,-0.96944 -0.54597,-0.96942 -0.5466,-0.96964 -0.54598,-0.96944 -0.54682,-0.96943 -0.54576,-0.96964 -0.54681,-0.96944 -0.54577,-0.96942 -0.54681,-0.969432 -0.54598,-0.9688 -0.54576,-0.96943 -0.54681,-0.96942 -0.54598,-0.96965 -0.5466,-0.969443 -0.54597,-0.96942 -0.54661,-0.96943 -0.54597,-0.96964 -0.54682,-0.96943 -1.09174,-1.93908 -0.5466,-0.96943 -0.54597,-0.96858 -0.54682,-0.96965 -1.02029,0.6002 -0.998216,0.63697 -0.973633,0.67311 -0.949044,0.70842 -0.921726,0.7431 -0.893986,0.77567 -0.864353,0.80866 -0.834933,0.83978 0.802779,0.76999 1.607451,1.53998 0.802779,0.77 0.80362,0.76916 0.803621,0.770013 0.80299,0.77 2.410861,2.30997 0.80299,0.770212 0.80362,0.76916 0.80362,0.76999 0.80278,0.77 1.60744,1.53999 0.80278,0.77 1.60746,1.53999 0.80277,0.76917 1.60724,1.539987 0.803,0.769988 1.60723,1.540209 0.80278,0.769989 0.80383,0.77 0.80362,0.769162 z"
       style="fill:none;stroke:#000000;stroke-width:0.22422725;stroke-linecap:round;stroke-linejoin:round;stroke-miterlimit:10;stroke-dasharray:none;stroke-opacity:1"
       id="path21401"
       inkscape:connector-curvature="0" />
    <path
       d="m 117.17297,-81.52532 -0.80278,-0.76999 -0.80362,-0.769162 -0.80383,-0.77 -0.80278,-0.769989 -1.60723,-1.540209 -0.803,-0.769988 -1.60724,-1.539987 -0.80277,-0.76917 -1.60746,-1.53999 -0.80278,-0.77 -1.60744,-1.53999 -0.80278,-0.77 -0.80362,-0.76999 -0.80362,-0.76916 -0.80299,-0.770212 -2.410861,-2.30997 -0.80299,-0.77 -0.803621,-0.770013 -0.80362,-0.76916 -0.802779,-0.77 -1.607451,-1.53998 -0.802779,-0.76999 -0.747089,0.80697 -0.719139,0.83156 -0.691189,0.85533 -0.660718,0.87928 -0.630455,0.900513 -0.599353,0.92172 -0.56804,0.94169 -0.535257,0.9604 -0.502262,0.977622 -0.468848,0.99507 -0.434174,1.00977 -0.399919,1.02449 -0.365243,1.03669 -0.329097,1.04907 -0.293163,1.0598 -0.257016,1.06883 -0.220658,1.07703 -0.183883,1.084391 -0.146265,1.089417 -0.109074,1.094268 -0.07229,1.097619 -0.03447,1.098258 0.0024,1.100139 0.04015,1.098253 0.07796,1.096782 0.114953,1.093419 1.104136,-0.134708 1.104978,-0.135336 1.104138,-0.135548 1.104977,-0.135338 1.103927,-0.134708 1.104977,-0.135337 1.104138,-0.135548 1.104978,-0.134498 2.208274,-0.271096 1.104978,-0.135336 1.103926,-0.134707 1.104978,-0.135339 1.104135,-0.135549 1.10498,-0.135336 1.10414,-0.134708 1.10497,-0.135337 1.10414,-0.135549 1.10477,-0.134706 1.10413,-0.135338 1.10498,-0.135548 1.10414,-0.135339 1.10414,-0.134705 1.10497,-0.135339 1.10414,-0.135547 1.10498,-0.135339 1.10392,-0.134706 1.10499,-0.135548 z"
       style="fill:#00a087;fill-opacity:0.74901997;fill-rule:nonzero;stroke:none;stroke-width:0.21015172"
       id="path21403"
       inkscape:connector-curvature="0" />
    <path
       d="m 117.17297,-81.52532 -0.80278,-0.76999 -0.80362,-0.769162 -0.80383,-0.77 -0.80278,-0.769989 -1.60723,-1.540209 -0.803,-0.769988 -1.60724,-1.539987 -0.80277,-0.76917 -1.60746,-1.53999 -0.80278,-0.77 -1.60744,-1.53999 -0.80278,-0.77 -0.80362,-0.76999 -0.80362,-0.76916 -0.80299,-0.770212 -2.410861,-2.30997 -0.80299,-0.77 -0.803621,-0.770013 -0.80362,-0.76916 -0.802779,-0.77 -1.607451,-1.53998 -0.802779,-0.76999 -0.747089,0.80697 -0.719139,0.83156 -0.691189,0.85533 -0.660718,0.87928 -0.630455,0.900513 -0.599353,0.92172 -0.56804,0.94169 -0.535257,0.9604 -0.502262,0.977622 -0.468848,0.99507 -0.434174,1.00977 -0.399919,1.02449 -0.365243,1.03669 -0.329097,1.04907 -0.293163,1.0598 -0.257016,1.06883 -0.220658,1.07703 -0.183883,1.084391 -0.146265,1.089417 -0.109074,1.094268 -0.07229,1.097619 -0.03447,1.098258 0.0024,1.100139 0.04015,1.098253 0.07796,1.096782 0.114953,1.093419 1.104136,-0.134708 1.104978,-0.135336 1.104138,-0.135548 1.104977,-0.135338 1.103927,-0.134708 1.104977,-0.135337 1.104138,-0.135548 1.104978,-0.134498 2.208274,-0.271096 1.104978,-0.135336 1.103926,-0.134707 1.104978,-0.135339 1.104135,-0.135549 1.10498,-0.135336 1.10414,-0.134708 1.10497,-0.135337 1.10414,-0.135549 1.10477,-0.134706 1.10413,-0.135338 1.10498,-0.135548 1.10414,-0.135339 1.10414,-0.134705 1.10497,-0.135339 1.10414,-0.135547 1.10498,-0.135339 1.10392,-0.134706 1.10499,-0.135548 z"
       style="fill:none;stroke:#000000;stroke-width:0.22422725;stroke-linecap:round;stroke-linejoin:round;stroke-miterlimit:10;stroke-dasharray:none;stroke-opacity:1"
       id="path21405"
       inkscape:connector-curvature="0" />
    <path
       d="m 117.17297,-81.52532 -1.10413,0.135338 -1.10499,0.135548 -1.10392,0.134706 -1.10497,0.135339 -1.10414,0.135547 -1.10498,0.135339 -1.10414,0.134705 -1.10413,0.135339 -1.10498,0.135548 -1.10414,0.135338 -1.10476,0.134706 -1.10414,0.135549 -1.10498,0.135337 -1.10414,0.134708 -1.10497,0.135336 -1.10414,0.135549 -1.104977,0.135339 -1.103927,0.134707 -1.104978,0.135336 -2.208274,0.271096 -1.104978,0.134498 -1.104137,0.135548 -1.104977,0.135337 -1.103928,0.134708 -1.104978,0.135338 -1.104136,0.135548 -1.104978,0.135336 -1.104138,0.134708 0.15194,1.086904 0.188716,1.081021 0.225073,1.073875 0.261849,1.06547 0.297994,1.056431 0.333302,1.045086 0.368396,1.033525 0.403912,1.020498 0.438376,1.005577 0.472001,0.990024 0.505835,0.974264 0.538409,0.95556 0.570561,0.937485 0.602505,0.917732 0.632977,0.895669 0.662399,0.874233 0.69287,0.851323 0.72082,0.827578 0.748561,0.801939 0.77588,0.776509 0.801098,0.749612 0.826737,0.721453 0.850483,0.692865 0.873392,0.664081 0.895666,0.633819 0.916892,0.603348 0.936642,0.5714 0.95556,0.539246 0.9728,0.506468 0.99002,0.472842 1.00558,0.439213 1.02028,0.405598 1.03268,0.369447 1.04509,0.334774 1.05559,0.298836 1.06568,0.262687 1.07367,0.226541 1.08038,0.189768 1.08691,0.152572 1.09089,0.115794 1.09427,0.07881 1.09678,0.04098 1.09678,0.0047 1.09657,-0.0336 1.09511,-0.0706 1.09173,-0.107608 1.08775,-0.144376 1.08291,-0.181571 1.07535,-0.218344 1.06715,-0.254498 1.05811,-0.290637 1.0474,-0.326573 1.0352,-0.362093 1.02282,-0.397395 1.00893,-0.431655 0.99422,-0.465485 0.97679,-0.499112 0.95976,-0.531894 0.94064,-0.564889 0.92109,-0.595986 0.90051,-0.627092 0.87843,-0.656725 0.85616,-0.687194 0.83157,-0.714936 0.80782,-0.743733 0.78072,-0.769992 0.75507,-0.796268 0.72733,-0.821692 0.69876,-0.846491 0.66975,-0.869189 0.6395,-0.89167 0.60901,-0.911846 0.57791,-0.933494 0.54514,-0.951362 0.51319,-0.970269 0.4802,-0.986873 0.44573,-1.002215 0.41127,-1.017133 0.3768,-1.031005 0.34149,-1.042563 0.30536,-1.05412 0.27004,-1.062948 0.23306,-1.072195 0.19713,-1.079548 0.16013,-1.086065 0.12314,-1.090058 0.0862,-1.093417 0.0483,-1.096784 0.0116,-1.096778 -0.0262,-1.097421 -0.0624,-1.095094 -0.10086,-1.092791 -0.13723,-1.088381 -0.17486,-1.083752 -0.21097,-1.076183 -0.24778,-1.06946 -0.28328,-1.05979 -0.32006,-1.04929 -0.35473,-1.03837 -0.39069,-1.02533 -0.4245,-1.0121 -0.4596,-0.99673 -0.49259,-0.980162 -0.52538,-0.96292 -0.55817,-0.94483 -0.59032,-0.92509 -0.62057,-0.904713 -0.6519,-0.88244 -0.68131,-0.86035 -0.70926,-0.83641 -0.73805,-0.81181 -0.76579,-0.7866 -0.79143,-0.76012 -0.81664,-0.73302 -0.84145,-0.70442 -0.86457,-0.67564 -0.88726,-0.64517 -0.9089,-0.61489 -0.92824,-0.5836 -0.94905,-0.55249 -0.96628,-0.51886 -0.9833,-0.48671 -0.9999,-0.45225 -1.01461,-0.41799 -1.02785,-0.38415 -1.04005,-0.34802 -1.05244,-0.31271 -1.06148,-0.27676 -1.07051,-0.24041 -1.07765,-0.20448 -1.08459,-0.16665 -1.09006,-0.13052 -1.09258,-0.0927 -1.09595,-0.0568 -1.09761,-0.0181 z"
       style="fill:#3c5488;fill-opacity:0.74901997;fill-rule:nonzero;stroke:none;stroke-width:0.21015172"
       id="path21407"
       inkscape:connector-curvature="0" />
    <path
       d="m 117.17297,-81.52532 -1.10413,0.135338 -1.10499,0.135548 -1.10392,0.134706 -1.10497,0.135339 -1.10414,0.135547 -1.10498,0.135339 -1.10414,0.134705 -1.10413,0.135339 -1.10498,0.135548 -1.10414,0.135338 -1.10476,0.134706 -1.10414,0.135549 -1.10498,0.135337 -1.10414,0.134708 -1.10497,0.135336 -1.10414,0.135549 -1.104977,0.135339 -1.103927,0.134707 -1.104978,0.135336 -2.208274,0.271096 -1.104978,0.134498 -1.104137,0.135548 -1.104977,0.135337 -1.103928,0.134708 -1.104978,0.135338 -1.104136,0.135548 -1.104978,0.135336 -1.104138,0.134708 0.15194,1.086904 0.188716,1.081021 0.225073,1.073875 0.261849,1.06547 0.297994,1.056431 0.333302,1.045086 0.368396,1.033525 0.403912,1.020498 0.438376,1.005577 0.472001,0.990024 0.505835,0.974264 0.538409,0.95556 0.570561,0.937485 0.602505,0.917732 0.632977,0.895669 0.662399,0.874233 0.69287,0.851323 0.72082,0.827578 0.748561,0.801939 0.77588,0.776509 0.801098,0.749612 0.826737,0.721453 0.850483,0.692865 0.873392,0.664081 0.895666,0.633819 0.916892,0.603348 0.936642,0.5714 0.95556,0.539246 0.9728,0.506468 0.99002,0.472842 1.00558,0.439213 1.02028,0.405598 1.03268,0.369447 1.04509,0.334774 1.05559,0.298836 1.06568,0.262687 1.07367,0.226541 1.08038,0.189768 1.08691,0.152572 1.09089,0.115794 1.09427,0.07881 1.09678,0.04098 1.09678,0.0047 1.09657,-0.0336 1.09511,-0.0706 1.09173,-0.107608 1.08775,-0.144376 1.08291,-0.181571 1.07535,-0.218344 1.06715,-0.254498 1.05811,-0.290637 1.0474,-0.326573 1.0352,-0.362093 1.02282,-0.397395 1.00893,-0.431655 0.99422,-0.465485 0.97679,-0.499112 0.95976,-0.531894 0.94064,-0.564889 0.92109,-0.595986 0.90051,-0.627092 0.87843,-0.656725 0.85616,-0.687194 0.83157,-0.714936 0.80782,-0.743733 0.78072,-0.769992 0.75507,-0.796268 0.72733,-0.821692 0.69876,-0.846491 0.66975,-0.869189 0.6395,-0.89167 0.60901,-0.911846 0.57791,-0.933494 0.54514,-0.951362 0.51319,-0.970269 0.4802,-0.986873 0.44573,-1.002215 0.41127,-1.017133 0.3768,-1.031005 0.34149,-1.042563 0.30536,-1.05412 0.27004,-1.062948 0.23306,-1.072195 0.19713,-1.079548 0.16013,-1.086065 0.12314,-1.090058 0.0862,-1.093417 0.0483,-1.096784 0.0116,-1.096778 -0.0262,-1.097421 -0.0624,-1.095094 -0.10086,-1.092791 -0.13723,-1.088381 -0.17486,-1.083752 -0.21097,-1.076183 -0.24778,-1.06946 -0.28328,-1.05979 -0.32006,-1.04929 -0.35473,-1.03837 -0.39069,-1.02533 -0.4245,-1.0121 -0.4596,-0.99673 -0.49259,-0.980162 -0.52538,-0.96292 -0.55817,-0.94483 -0.59032,-0.92509 -0.62057,-0.904713 -0.6519,-0.88244 -0.68131,-0.86035 -0.70926,-0.83641 -0.73805,-0.81181 -0.76579,-0.7866 -0.79143,-0.76012 -0.81664,-0.73302 -0.84145,-0.70442 -0.86457,-0.67564 -0.88726,-0.64517 -0.9089,-0.61489 -0.92824,-0.5836 -0.94905,-0.55249 -0.96628,-0.51886 -0.9833,-0.48671 -0.9999,-0.45225 -1.01461,-0.41799 -1.02785,-0.38415 -1.04005,-0.34802 -1.05244,-0.31271 -1.06148,-0.27676 -1.07051,-0.24041 -1.07765,-0.20448 -1.08459,-0.16665 -1.09006,-0.13052 -1.09258,-0.0927 -1.09595,-0.0568 -1.09761,-0.0181 z"
       style="fill:none;stroke:#000000;stroke-width:0.22422725;stroke-linecap:round;stroke-linejoin:round;stroke-miterlimit:10;stroke-dasharray:none;stroke-opacity:1"
       id="path21409"
       inkscape:connector-curvature="0" />
    <path
       d="m 201.20485,-81.446388 v -32.348262 l -1.15045,0.0206 -1.14878,0.061 -1.14624,0.10196 -1.1414,0.14326 -1.13571,0.18348 -1.12896,0.22374 -1.12012,0.26333 -1.11002,0.3038 -1.09862,0.34231 -1.08536,0.38111 -1.07145,0.42051 -1.05503,0.45734 -1.03944,0.49465 -1.02048,0.53174 -1.00068,0.56772 -0.98002,0.60232 -0.9579,0.63791 -0.93474,0.67053 0.66656,0.89452 0.6657,0.89449 2.66622,3.5782 0.66571,0.89448 2.66643,3.578001 0.6657,0.894489 2.6662,3.578203 0.66572,0.89449 3.33297,4.472476 0.66572,0.8945 2.66621,3.578188 0.66571,0.8945 z"
       style="fill:#e64b35;fill-opacity:0.74901997;fill-rule:nonzero;stroke:none;stroke-width:0.21066779"
       id="path22113"
       inkscape:connector-curvature="0" />
    <path
       d="m 201.20485,-81.446388 v -32.348262 l -1.15045,0.0206 -1.14878,0.061 -1.14624,0.10196 -1.1414,0.14326 -1.13571,0.18348 -1.12896,0.22374 -1.12012,0.26333 -1.11002,0.3038 -1.09862,0.34231 -1.08536,0.38111 -1.07145,0.42051 -1.05503,0.45734 -1.03944,0.49465 -1.02048,0.53174 -1.00068,0.56772 -0.98002,0.60232 -0.9579,0.63791 -0.93474,0.67053 0.66656,0.89452 0.6657,0.89449 2.66622,3.5782 0.66571,0.89448 2.66643,3.578001 0.6657,0.894489 2.6662,3.578203 0.66572,0.89449 3.33297,4.472476 0.66572,0.8945 2.66621,3.578188 0.66571,0.8945 z"
       style="fill:none;stroke:#000000;stroke-width:0.22477792;stroke-linecap:round;stroke-linejoin:round;stroke-miterlimit:10;stroke-dasharray:none;stroke-opacity:1"
       id="path22115"
       inkscape:connector-curvature="0" />
    <path
       d="m 201.20485,-81.446388 -0.66655,-0.894492 -0.66571,-0.894495 -2.66621,-3.578184 -0.66572,-0.8945 -3.33297,-4.472486 -0.66572,-0.89451 -2.6662,-3.578183 -0.6657,-0.89448 -2.66643,-3.578002 -0.66571,-0.89449 -2.66622,-3.57821 -0.6657,-0.89449 -0.66656,-0.8945 -0.91598,0.70786 -0.88965,0.7405 -0.86311,0.77104 -0.83445,0.80242 -0.80475,0.83109 -0.77527,0.85995 -0.74385,0.88628 -0.71186,0.91346 -0.67813,0.937268 -0.64444,0.961278 -0.60968,0.984224 -0.57447,1.004689 -0.53805,1.025519 -0.50034,1.043447 1.01372,0.464099 1.0148,0.464946 1.01372,0.464099 1.01374,0.464946 1.0148,0.464099 2.02767,0.929881 1.01457,0.46412 1.01396,0.464935 1.01372,0.464109 1.01479,0.465153 1.01374,0.464099 1.01479,0.464946 1.01373,0.464099 1.01395,0.464945 1.01457,0.46409 1.01393,0.464956 1.01374,0.4641 1.01457,0.464945 1.01395,0.464089 1.01374,0.464958 1.01479,0.464934 1.01372,0.46411 1.01395,0.464935 1.01458,0.46431 1.01395,0.464951 1.01374,0.464099 1.01477,0.464948 z"
       style="fill:#4dbbd5;fill-opacity:0.74901997;fill-rule:nonzero;stroke:none;stroke-width:0.21066779"
       id="path22117"
       inkscape:connector-curvature="0" />
    <path
       d="m 201.20485,-81.446388 -0.66655,-0.894492 -0.66571,-0.894495 -2.66621,-3.578184 -0.66572,-0.8945 -3.33297,-4.472486 -0.66572,-0.89451 -2.6662,-3.578183 -0.6657,-0.89448 -2.66643,-3.578002 -0.66571,-0.89449 -2.66622,-3.57821 -0.6657,-0.89449 -0.66656,-0.8945 -0.91598,0.70786 -0.88965,0.7405 -0.86311,0.77104 -0.83445,0.80242 -0.80475,0.83109 -0.77527,0.85995 -0.74385,0.88628 -0.71186,0.91346 -0.67813,0.937268 -0.64444,0.961278 -0.60968,0.984224 -0.57447,1.004689 -0.53805,1.025519 -0.50034,1.043447 1.01372,0.464099 1.0148,0.464946 1.01372,0.464099 1.01374,0.464946 1.0148,0.464099 2.02767,0.929881 1.01457,0.46412 1.01396,0.464935 1.01372,0.464109 1.01479,0.465153 1.01374,0.464099 1.01479,0.464946 1.01373,0.464099 1.01395,0.464945 1.01457,0.46409 1.01393,0.464956 1.01374,0.4641 1.01457,0.464945 1.01395,0.464089 1.01374,0.464958 1.01479,0.464934 1.01372,0.46411 1.01395,0.464935 1.01458,0.46431 1.01395,0.464951 1.01374,0.464099 1.01477,0.464948 z"
       style="fill:none;stroke:#000000;stroke-width:0.22477792;stroke-linecap:round;stroke-linejoin:round;stroke-miterlimit:10;stroke-dasharray:none;stroke-opacity:1"
       id="path22119"
       inkscape:connector-curvature="0" />
    <path
       d="m 201.20485,-81.446388 -1.01373,-0.464096 -1.01477,-0.464948 -1.01374,-0.464099 -1.01395,-0.464951 -1.01458,-0.46431 -1.01395,-0.464935 -1.01372,-0.46411 -1.01479,-0.464934 -1.01374,-0.464958 -1.01395,-0.464089 -1.01457,-0.464945 -1.01374,-0.4641 -1.01393,-0.464956 -1.01457,-0.46409 -1.01395,-0.464945 -1.01373,-0.464099 -1.01479,-0.464946 -1.01374,-0.464099 -1.01479,-0.465153 -1.01372,-0.464109 -1.01396,-0.464935 -1.01457,-0.46412 -2.02767,-0.929881 -1.0148,-0.464099 -1.01374,-0.464946 -1.01372,-0.464099 -1.0148,-0.464946 -1.01372,-0.464099 -0.4462,1.019635 -0.41144,1.03523 -0.37434,1.048258 -0.33897,1.060734 -0.3021,1.071459 -0.26502,1.082193 -0.2271,1.089583 -0.19002,1.096938 -0.15232,1.103481 -0.11356,1.10769 -0.0764,1.110849 -0.0371,1.112746 8.4e-4,1.11338 0.0386,1.112538 0.0775,1.111061 0.11586,1.107485 0.15399,1.102845 0.19087,1.096946 0.22963,1.089575 0.26586,1.081144 0.30358,1.070617 0.34063,1.060923 0.37606,1.047439 0.41227,1.034381 0.44767,1.019633 0.48307,1.003199 0.51697,0.986769 0.55046,0.967598 0.5825,0.948008 0.61642,0.928413 0.64696,0.905874 0.67795,0.883115 0.70782,0.8591 0.73734,0.834462 0.76598,0.80896 0.79675,-0.780946 0.79654,-0.780097 1.59308,-1.562105 0.79672,-0.780103 0.7974,-0.780948 0.79654,-0.780946 0.79652,-0.780108 1.59329,-1.561886 0.79739,-0.780103 1.59306,-1.561892 0.79675,-0.780105 0.79653,-0.780947 0.79738,-0.780946 0.79652,-0.780943 0.79676,-0.780104 1.59307,-1.562097 0.79738,-0.780107 1.59327,-1.561893 0.79654,-0.7801 0.79654,-0.780948 0.79736,-0.780941 0.79676,-0.780106 z"
       style="fill:#00a087;fill-opacity:0.74901997;fill-rule:nonzero;stroke:none;stroke-width:0.21066779"
       id="path22121"
       inkscape:connector-curvature="0" />
    <path
       d="m 201.20485,-81.446388 -1.01373,-0.464096 -1.01477,-0.464948 -1.01374,-0.464099 -1.01395,-0.464951 -1.01458,-0.46431 -1.01395,-0.464935 -1.01372,-0.46411 -1.01479,-0.464934 -1.01374,-0.464958 -1.01395,-0.464089 -1.01457,-0.464945 -1.01374,-0.4641 -1.01393,-0.464956 -1.01457,-0.46409 -1.01395,-0.464945 -1.01373,-0.464099 -1.01479,-0.464946 -1.01374,-0.464099 -1.01479,-0.465153 -1.01372,-0.464109 -1.01396,-0.464935 -1.01457,-0.46412 -2.02767,-0.929881 -1.0148,-0.464099 -1.01374,-0.464946 -1.01372,-0.464099 -1.0148,-0.464946 -1.01372,-0.464099 -0.4462,1.019635 -0.41144,1.03523 -0.37434,1.048258 -0.33897,1.060734 -0.3021,1.071459 -0.26502,1.082193 -0.2271,1.089583 -0.19002,1.096938 -0.15232,1.103481 -0.11356,1.10769 -0.0764,1.110849 -0.0371,1.112746 8.4e-4,1.11338 0.0386,1.112538 0.0775,1.111061 0.11586,1.107485 0.15399,1.102845 0.19087,1.096946 0.22963,1.089575 0.26586,1.081144 0.30358,1.070617 0.34063,1.060923 0.37606,1.047439 0.41227,1.034381 0.44767,1.019633 0.48307,1.003199 0.51697,0.986769 0.55046,0.967598 0.5825,0.948008 0.61642,0.928413 0.64696,0.905874 0.67795,0.883115 0.70782,0.8591 0.73734,0.834462 0.76598,0.80896 0.79675,-0.780946 0.79654,-0.780097 1.59308,-1.562105 0.79672,-0.780103 0.7974,-0.780948 0.79654,-0.780946 0.79652,-0.780108 1.59329,-1.561886 0.79739,-0.780103 1.59306,-1.561892 0.79675,-0.780105 0.79653,-0.780947 0.79738,-0.780946 0.79652,-0.780943 0.79676,-0.780104 1.59307,-1.562097 0.79738,-0.780107 1.59327,-1.561893 0.79654,-0.7801 0.79654,-0.780948 0.79736,-0.780941 0.79676,-0.780106 z"
       style="fill:none;stroke:#000000;stroke-width:0.22477792;stroke-linecap:round;stroke-linejoin:round;stroke-miterlimit:10;stroke-dasharray:none;stroke-opacity:1"
       id="path22123"
       inkscape:connector-curvature="0" />
    <path
       d="m 201.20485,-81.446388 -1.59305,1.561893 -0.79677,0.780106 -0.79736,0.780941 -0.79654,0.780948 -0.79654,0.7801 -1.59328,1.561893 -0.79737,0.780107 -1.59307,1.562097 -0.79675,0.780104 -0.79653,0.780943 -0.79738,0.780946 -0.79654,0.780947 -0.79675,0.780105 -1.59307,1.561892 -0.79736,0.780103 -1.59329,1.561886 -0.79653,0.780108 -0.79655,0.780946 -0.79738,0.780948 -0.79674,0.780103 -1.59307,1.562105 -0.79653,0.780097 -0.79675,0.780946 0.78094,0.771044 0.80728,0.743866 0.83214,0.716696 0.85659,0.687199 0.87806,0.658331 0.90102,0.627998 0.92082,0.597463 0.94148,0.565223 0.9596,0.533196 0.9777,0.499494 0.9931,0.467467 1.00889,0.432923 1.02383,0.398382 1.03607,0.362769 1.04744,0.328428 1.0584,0.291988 1.06724,0.256802 1.07567,0.219724 1.08283,0.182649 1.08789,0.146621 1.09211,0.109351 1.0961,0.07246 1.09696,0.03543 1.09777,-0.0026 1.09779,-0.03939 1.09527,-0.07666 1.09126,-0.114391 1.08789,-0.150419 1.0822,-0.187701 1.0746,-0.223729 1.06662,-0.261022 1.05651,-0.296197 1.0468,-0.332434 1.03439,-0.36783 1.02131,-0.402371 1.00719,-0.437133 0.99161,-0.47063 0.97519,-0.504557 0.9579,-0.537202 0.93895,-0.569433 0.9183,-0.600828 0.89871,-0.631152 0.87554,-0.661716 0.85342,-0.691195 0.82877,-0.72006 0.80475,-0.747249 0.77841,-0.774409 0.75147,-0.799691 0.72405,-0.825402 0.69627,-0.849417 0.66654,-0.872166 0.63622,-0.894487 0.60566,-0.915987 0.57429,-0.935579 0.54226,-0.954746 0.50939,-0.972658 0.47652,-0.989078 0.44283,-1.004889 0.40722,-1.018786 0.37374,-1.032698 0.3381,-1.04428 0.30211,-1.055866 0.26649,-1.064716 0.22963,-1.073984 0.19424,-1.080517 0.15631,-1.087044 0.11945,-1.09126 0.0829,-1.09442 0.0452,-1.096943 0.009,-1.097793 -0.0289,-1.097781 -0.0666,-1.096114 -0.10282,-1.092941 -0.14072,-1.088741 -0.17781,-1.083666 -0.21403,-1.076517 -0.25009,-1.068821 -0.28652,-1.059869 -0.32254,-1.049979 -0.35791,-1.037759 -0.39246,-1.025313 -0.42725,-1.011399 -0.46157,-0.995844 -0.49549,-0.980023 -0.5275,-0.962754 -0.56038,-0.944001 -0.59241,-0.924833 -0.62293,-0.90378 -0.65351,-0.88205 -0.68298,-0.85994 -0.71099,-0.83613 -0.73987,-0.81129 -0.76684,-0.78599 -0.79337,-0.75862 -0.81804,-0.7325 -0.84265,-0.70362 -0.86649,-0.67478 -0.88795,-0.64508 -0.91009,-0.61388 -0.92988,-0.58354 -0.9497,-0.55132 -0.96781,-0.51845 -0.98423,-0.48558 -1.00067,-0.45251 -1.01543,-0.41735 -1.0287,-0.38341 -1.04174,-0.34803 -1.0525,-0.312 -1.06239,-0.2764 -1.07146,-0.24038 -1.07883,-0.20413 -1.08473,-0.16704 -1.0902,-0.12999 -1.0938,-0.093 -1.09695,-0.0561 -1.09777,-0.0182 z"
       style="fill:#3c5488;fill-opacity:0.74901997;fill-rule:nonzero;stroke:none;stroke-width:0.21066779"
       id="path22125"
       inkscape:connector-curvature="0" />
    <path
       d="m 201.20485,-81.446388 -1.59305,1.561893 -0.79677,0.780106 -0.79736,0.780941 -0.79654,0.780948 -0.79654,0.7801 -1.59328,1.561893 -0.79737,0.780107 -1.59307,1.562097 -0.79675,0.780104 -0.79653,0.780943 -0.79738,0.780946 -0.79654,0.780947 -0.79675,0.780105 -1.59307,1.561892 -0.79736,0.780103 -1.59329,1.561886 -0.79653,0.780108 -0.79655,0.780946 -0.79738,0.780948 -0.79674,0.780103 -1.59307,1.562105 -0.79653,0.780097 -0.79675,0.780946 0.78094,0.771044 0.80728,0.743866 0.83214,0.716696 0.85659,0.687199 0.87806,0.658331 0.90102,0.627998 0.92082,0.597463 0.94148,0.565223 0.9596,0.533196 0.9777,0.499494 0.9931,0.467467 1.00889,0.432923 1.02383,0.398382 1.03607,0.362769 1.04744,0.328428 1.0584,0.291988 1.06724,0.256802 1.07567,0.219724 1.08283,0.182649 1.08789,0.146621 1.09211,0.109351 1.0961,0.07246 1.09696,0.03543 1.09777,-0.0026 1.09779,-0.03939 1.09527,-0.07666 1.09126,-0.114391 1.08789,-0.150419 1.0822,-0.187701 1.0746,-0.223729 1.06662,-0.261022 1.05651,-0.296197 1.0468,-0.332434 1.03439,-0.36783 1.02131,-0.402371 1.00719,-0.437133 0.99161,-0.47063 0.97519,-0.504557 0.9579,-0.537202 0.93895,-0.569433 0.9183,-0.600828 0.89871,-0.631152 0.87554,-0.661716 0.85342,-0.691195 0.82877,-0.72006 0.80475,-0.747249 0.77841,-0.774409 0.75147,-0.799691 0.72405,-0.825402 0.69627,-0.849417 0.66654,-0.872166 0.63622,-0.894487 0.60566,-0.915987 0.57429,-0.935579 0.54226,-0.954746 0.50939,-0.972658 0.47652,-0.989078 0.44283,-1.004889 0.40722,-1.018786 0.37374,-1.032698 0.3381,-1.04428 0.30211,-1.055866 0.26649,-1.064716 0.22963,-1.073984 0.19424,-1.080517 0.15631,-1.087044 0.11945,-1.09126 0.0829,-1.09442 0.0452,-1.096943 0.009,-1.097793 -0.0289,-1.097781 -0.0666,-1.096114 -0.10282,-1.092941 -0.14072,-1.088741 -0.17781,-1.083666 -0.21403,-1.076517 -0.25009,-1.068821 -0.28652,-1.059869 -0.32254,-1.049979 -0.35791,-1.037759 -0.39246,-1.025313 -0.42725,-1.011399 -0.46157,-0.995844 -0.49549,-0.980023 -0.5275,-0.962754 -0.56038,-0.944001 -0.59241,-0.924833 -0.62293,-0.90378 -0.65351,-0.88205 -0.68298,-0.85994 -0.71099,-0.83613 -0.73987,-0.81129 -0.76684,-0.78599 -0.79337,-0.75862 -0.81804,-0.7325 -0.84265,-0.70362 -0.86649,-0.67478 -0.88795,-0.64508 -0.91009,-0.61388 -0.92988,-0.58354 -0.9497,-0.55132 -0.96781,-0.51845 -0.98423,-0.48558 -1.00067,-0.45251 -1.01543,-0.41735 -1.0287,-0.38341 -1.04174,-0.34803 -1.0525,-0.312 -1.06239,-0.2764 -1.07146,-0.24038 -1.07883,-0.20413 -1.08473,-0.16704 -1.0902,-0.12999 -1.0938,-0.093 -1.09695,-0.0561 -1.09777,-0.0182 z"
       style="fill:none;stroke:#000000;stroke-width:0.22477792;stroke-linecap:round;stroke-linejoin:round;stroke-miterlimit:10;stroke-dasharray:none;stroke-opacity:1"
       id="path22127"
       inkscape:connector-curvature="0" />
    <g
       id="g24678"
       transform="matrix(0.93671531,0,0,0.93671531,16.65303,-2.747059)">
      <image
         sodipodi:absref="C:\Users\HP\Desktop\\Cry_phylogeny\figures\supplementary figures\fig_S14_pangenomes\Cry_recombination_full.cfml-1.png"
         xlink:href="Cry_recombination_full.cfml-1.png"
         transform="matrix(0.46167246,0,0,0.46167246,-2.4361902,2.9667881)"
         clip-path="url(#clipPath23969)"
         y="-131.8421"
         x="28.410158"
         id="image23407"
         preserveAspectRatio="none"
         height="247.19641"
         width="494.39282" />
      <image
         sodipodi:absref="C:\Users\HP\Desktop\\Cry_phylogeny\figures\supplementary figures\fig_S14_pangenomes\Cry_recombination_full.cfml-1.png"
         xlink:href="Cry_recombination_full.cfml-1.png"
         transform="matrix(0.47641513,0,0,0.47641513,-3.163179,-123.73735)"
         clip-path="url(#clipPath23987)"
         y="138.7785"
         x="195.85091"
         id="image23407-8"
         preserveAspectRatio="none"
         height="236.99106"
         width="473.98212" />
    </g>
    <g
       id="g24683"
       transform="matrix(0.93671531,0,0,0.93671531,9.9840499,-2.5899681)">
      <image
         sodipodi:absref="C:\Users\HP\Desktop\\Cry_phylogeny\figures\supplementary figures\fig_S14_pangenomes\All_recombination_full.cfml-1.png"
         xlink:href="All_recombination_full.cfml-1.png"
         transform="matrix(0.79591578,0,0,0.79591578,-208.23845,60.457546)"
         clip-path="url(#clipPath23383)"
         y="-149.09509"
         x="98.682121"
         id="image22815"
         preserveAspectRatio="none"
         height="141.36308"
         width="282.72617" />
      <image
         sodipodi:absref="C:\Users\HP\Desktop\\Cry_phylogeny\figures\supplementary figures\fig_S14_pangenomes\All_recombination_full.cfml-1.png"
         xlink:href="All_recombination_full.cfml-1.png"
         transform="matrix(0.29811093,0,0,0.29811093,17.184178,12.907064)"
         clip-path="url(#clipPath23395)"
         y="-237.68083"
         x="-191.83791"
         id="image22815-4"
         preserveAspectRatio="none"
         height="370.41666"
         width="740.83331" />
      <image
         sodipodi:absref="C:\Users\HP\Desktop\\Cry_phylogeny\figures\supplementary figures\fig_S14_pangenomes\Cry_recombination_full.cfml-1.png"
         xlink:href="Cry_recombination_full.cfml-1.png"
         width="494.39282"
         height="247.19641"
         preserveAspectRatio="none"
         id="image23407-1"
         x="28.410158"
         y="-131.8421"
         clip-path="url(#clipPath24014)"
         transform="matrix(0.46167246,0,0,0.46167246,-153.37711,0.14827565)" />
    </g>
    <text
       id="text2969-8"
       style="font-variant:normal;font-weight:normal;font-size:9.5518589px;font-family:Arial;-inkscape-font-specification:ArialMT;writing-mode:lr-tb;fill:#000000;fill-opacity:1;fill-rule:nonzero;stroke:none;stroke-width:0.14111111"
       x="80.471413"
       y="-107.41506">b</text>
    <text
       id="text2969-83"
       style="font-variant:normal;font-weight:normal;font-size:9.5518589px;font-family:Arial;-inkscape-font-specification:ArialMT;writing-mode:lr-tb;fill:#000000;fill-opacity:1;fill-rule:nonzero;stroke:none;stroke-width:0.14111111"
       x="163.49779"
       y="-108.62096">
      <tspan
         style="stroke-width:0.14111111"
         id="tspan2965-9"
         y="-108.62096"
         x="163.49779">c</tspan>
    </text>
    <text
       id="text2969-80"
       style="font-variant:normal;font-weight:normal;font-size:9.5518589px;font-family:Arial;-inkscape-font-specification:ArialMT;writing-mode:lr-tb;fill:#000000;fill-opacity:1;fill-rule:nonzero;stroke:none;stroke-width:0.14111111"
       x="-23.295275"
       y="-40.062908">d</text>
    <text
       id="text2969-4"
       style="font-variant:normal;font-weight:normal;font-size:9.5518589px;font-family:Arial;-inkscape-font-specification:ArialMT;writing-mode:lr-tb;fill:#000000;fill-opacity:1;fill-rule:nonzero;stroke:none;stroke-width:0.14111111"
       x="103.91294"
       y="-39.786201">e</text>
    <text
       id="text2969-88"
       style="font-variant:normal;font-weight:normal;font-size:9.5518589px;font-family:Arial;-inkscape-font-specification:ArialMT;writing-mode:lr-tb;fill:#000000;fill-opacity:1;fill-rule:nonzero;stroke:none;stroke-width:0.14111111"
       x="88.140648"
       y="58.163746">f</text>
    <image
       sodipodi:absref="C:\Users\HP\Desktop\\Cry_phylogeny\figures\supplementary figures\fig_S14_pangenomes\Rec_recombination_full.cfml-1.png"
       xlink:href="Rec_recombination_full.cfml-1.png"
       width="412.62634"
       height="206.31317"
       preserveAspectRatio="none"
       id="image24087"
       x="106.35498"
       y="-69.439156"
       clip-path="url(#clipPath24649)"
       transform="matrix(0.55104237,0,0,0.55104237,-45.890835,76.283186)" />
    <image
       sodipodi:absref="C:\Users\HP\Desktop\\Cry_phylogeny\figures\supplementary figures\fig_S14_pangenomes\Rec_recombination_full.cfml-1.png"
       xlink:href="Rec_recombination_full.cfml-1.png"
       width="345.27441"
       height="172.63721"
       preserveAspectRatio="none"
       id="image24087-1"
       x="245.9496"
       y="116.18401"
       clip-path="url(#clipPath24670)"
       transform="matrix(0.6526118,0,0,0.6526118,-77.460819,-37.753613)" />
  </g>
</svg>
